<svg id="Capa_1" enable-background="new 0 0 508.863 508.863" height="512" viewBox="0 0 508.863 508.863" width="512" xmlns="http://www.w3.org/2000/svg"><g><g><path d="m62.452 131.177-53.504-16.224c-1.944-.59-1.925-3.349.027-3.912l56.629-16.316 47.675-12.077-4.118 60.348z" fill="#a79ba7"/><g><path d="m214.175 135.51-3.088-8.406-.002.006-11.898-17.944-58.382-38.023-40.908 2.491-13.327 6.614 3.26 27.203 11.99 45.134-35.911 13.375 4.326 43.57c9.29 93.49 88.11 162.81 179.52 162.81 7.85 0 15.8-.51 23.8-1.56 29.06-3.82 56.65-15.07 80.09-32.66l20.76-15.59z" fill="#fae2c0"/><path d="m313.406 359.737c-8 1.05-15.95 1.56-23.8 1.56-91.41 0-170.23-69.32-179.52-162.81l-7.147-71.97c-.421-4.244-.449-8.518-.082-12.767l.468-5.411c.938-10.857 4.393-21.149 9.844-30.149l-11.35-.201-31.294 10.221c-3.218 3.874-4.92 6.51-4.92 6.51l1.82 5c1.34 3.66 1.99 7.47 1.99 11.25 0 7.22-2.38 14.36-6.96 20.21l7.78 78.35c9.29 93.49 88.11 162.81 179.52 162.81 7.85 0 15.8-.51 23.8-1.56 14.812-1.947 29.262-5.832 42.955-11.496-1.026.154-2.074.318-3.104.453z" fill="#fddeb0"/><g id="XMLID_138_"><g><path d="m109.165 143c9.84 6.26 10.83 20.25 1.96 27.84l-41.28 34.79-7.39-74.45c3.16-4.04 5.27-8.69 6.28-13.56l1.79.8z" fill="#fdd79b"/></g></g><g id="XMLID_99_"><g><path d="m368.292 327.123 92.425 77.484c11.149 9.346 27.915 7.107 36.22-4.838 8.397-12.078 4.468-28.772-8.436-35.836l-80.121-43.862-72.201-33.821-3.945 16.341z" fill="#e19974"/><path d="m379.555 270.76-54.375-18.297-160.917-10.436-6.268 11.622c5.58 11.87 13.94 22.7 25.05 31.47 1.52 1.2 3.05 2.37 4.6 3.51l50.92 19.245 159.247-3.442 7.113-8.163z" fill="#d77f4a"/><path d="m263.155 153.67c-23.51-23.64-61.57-24.28-85.85-1.42l-.02.01c-16.56 15.58-25.61 35.86-27.32 56.58l8.03 12.902 187.941 40.938 5.559-20.149z" fill="#e19974"/><path d="m351.495 242.53 28.06 28.23c-76.96-1.93-151.02-7.38-221.56-17.11-6.6-14.05-9.31-29.55-8.03-44.81 51.71 16.39 201.53 33.69 201.53 33.69z" fill="#dc8758"/></g></g></g><path d="m208.445 119.91c-7.87-21.41-22.55-39.79-42.07-51.58-11.913-7.196-23.052-10.514-33.26-11.21l-.013.007-35.364 19.994-27.213 11.089 21.09-.77c30.26-1.1 60.24 6.2 86.61 21.1l32.86 18.57z" fill="#e19974"/><g fill="#dc8758"><path d="m108.374 87.691c5.102-12.366 13.653-23.067 24.728-30.564l.013-.007c-30.857-2.102-53.198 19.774-62.59 31.09l21.09-.77c5.603-.204 11.196-.116 16.759.251z"/><path d="m424.005 309.03c4.73 2.54 3.2 9.68-2.15 10.07l-103.73 7.51c-4.72.34-9.43.51-14.14.51-41.83 0-82.63-13.45-116.34-38.49 56.4 6.61 113.19 9.43 169.98 8.45l47.3-.81c3.55 3.57 7.61 6.6 12.05 8.99z"/></g></g><g><path d="m116.19 114.95v5.473c0 4.142 3.358 7.5 7.5 7.5s7.5-3.358 7.5-7.5v-5.473c0-4.142-3.358-7.5-7.5-7.5s-7.5 3.358-7.5 7.5z"/><path d="m508.007 378.253c-2.093-8.894-7.891-16.51-15.905-20.897l-62.073-33.982c1.988-1.769 3.424-4.162 4.017-6.939 1.205-5.647-1.403-11.278-6.49-14.011l-7.028-3.775c-3.791-2.037-7.251-4.616-10.285-7.667l-141.766-142.596c-12.756-12.83-29.744-20.062-47.833-20.362-.41-.007-.816.008-1.225.008l-3.935-10.711c-8.554-23.283-24.618-42.963-45.234-55.415-34.417-20.788-62.976-11.679-80.872-.375-14.828 9.364-24.663 21.594-28.401 26.721l-54.078 15.582c-4.097 1.18-6.869 4.838-6.899 9.101-.029 4.263 2.692 7.958 6.771 9.195l48.712 14.771 7.29 73.371c4.9 49.328 28.542 93.992 66.569 125.765 1.403 1.172 3.108 1.745 4.805 1.745 2.146 0 4.276-.916 5.759-2.691 2.656-3.178 2.232-7.908-.947-10.564-34.875-29.14-56.597-70.064-61.208-115.277l38.251-32.712c6.052-5.176 9.202-12.7 8.641-20.645s-4.737-14.952-11.458-19.226l-36.32-23.097c.348-5.476-.43-11.056-2.391-16.423l-.476-1.303c.063-.083.131-.173.196-.259l17.689-.645c28.889-1.053 57.476 5.909 82.651 20.133l27.056 15.287c-10.894 2.91-20.967 8.472-29.39 16.387-.019.017-.038.035-.056.052-20.205 19.015-31.104 45.818-29.902 73.538 1.203 27.72 14.381 53.479 36.157 70.672 35.956 28.39 80.039 43.621 125.512 43.62 4.904 0 9.832-.178 14.759-.535l30.817-2.233-.343.258c-22.366 16.786-48.842 27.585-76.566 31.23-37.706 4.958-75.06-2.331-108.025-21.076-3.601-2.047-8.18-.789-10.227 2.812s-.789 8.18 2.812 10.227c24.03 13.664 50.204 21.703 77.197 23.907l-25.94 41.338h-17.764c-4.142 0-7.5 3.358-7.5 7.5s3.358 7.5 7.5 7.5h21.912c2.581 0 4.981-1.327 6.353-3.514l4.633-7.383 5.478 7.733c1.406 1.985 3.688 3.165 6.12 3.165h4.341l-5.509 8.838h-17.749c-4.142 0-7.5 3.358-7.5 7.5s3.358 7.5 7.5 7.5h21.912c2.589 0 4.995-1.335 6.365-3.533l4.605-7.388 5.494 7.756c1.406 1.985 3.688 3.165 6.12 3.165h16.476c4.142 0 7.5-3.358 7.5-7.5s-3.358-7.5-7.5-7.5h-12.598l-6.889-9.724 37.709-60.499c22.615-5.791 44.004-15.99 62.745-30.056l9.887-7.42 21.529 18.049c1.405 1.178 3.114 1.752 4.814 1.752 2.142 0 4.268-.912 5.751-2.682 2.661-3.174 2.245-7.905-.929-10.566l-16.459-13.798 23.976-1.738 78.182 42.8c4.35 2.381 7.371 6.351 8.507 11.177.521 2.213.586 4.438.254 6.595l-18.996-13.386c-3.387-2.386-8.066-1.575-10.451 1.811-2.386 3.386-1.575 8.065 1.811 10.451l19.118 13.472c-1.896 1.076-3.996 1.805-6.243 2.105-4.859.649-9.606-.728-13.365-3.878l-41.747-34.999c-3.174-2.661-7.905-2.245-10.566.929s-2.245 7.905.929 10.566l41.747 34.999c5.83 4.888 13.208 7.534 20.74 7.534 1.413 0 2.833-.093 4.247-.282 8.956-1.196 17.051-6.137 22.208-13.556 5.217-7.503 7.008-16.906 4.914-25.799zm-259.192 42.302h-9.812l-6.841-9.658 19.497-31.07c7.592-.084 15.227-.603 22.873-1.608.247-.032.492-.076.739-.109zm-187.908-316.672c1.826 6.222 1.198 12.785-1.69 18.475l-30.418-9.224zm44.23 45.441c2.666 1.695 4.322 4.475 4.544 7.625s-1.027 6.134-3.427 8.188l-30.315 25.925-5.743-57.804c.97-1.455 1.827-2.962 2.591-4.506zm-13.8-69.375-2.159.079c15.772-12.912 41.431-24.541 73.317-5.282 13.821 8.348 25.255 20.521 33.127 35.013l-13.709-7.746c-27.589-15.588-58.908-23.213-90.576-22.064zm91.049 77.809c.018-.017.036-.034.054-.05 10.313-9.706 23.767-14.919 37.954-14.687 14.161.236 27.459 5.897 37.445 15.94l74.439 74.874c-38.263-4.237-69.34-8.441-96.614-13.062-4.088-.692-7.956 2.058-8.647 6.142-.692 4.084 2.058 7.956 6.142 8.647 31.838 5.394 68.694 10.218 115.922 15.173l11.898 11.968c-70.211-2.312-136.636-7.659-197.782-15.924-3.506-8.519-5.559-17.671-5.968-27.093-.012-.274-.015-.548-.024-.822 13.055 3.782 27.707 7.362 43.727 10.673.512.106 1.023.157 1.526.157 3.482 0 6.604-2.439 7.337-5.983.838-4.057-1.771-8.024-5.827-8.863-16.978-3.509-32.344-7.315-45.801-11.335 2.773-17.363 11.194-33.482 24.219-45.755zm-10.123 105.336c63.204 8.103 131.75 13.174 204.09 15.075l10.841 10.905-29.701.512c-55.578.956-111.745-1.797-166.981-8.178-.944-.717-1.886-1.437-2.818-2.172-5.935-4.687-11.108-10.133-15.431-16.142zm145.323 56.038c-34.243 2.48-68.081-4.422-98.215-19.669 38.694 3.525 77.701 5.309 116.521 5.309 7.294 0 14.583-.063 21.86-.188l44.248-.763c3.475 3.123 7.303 5.826 11.428 8.042l.531.285z"/></g></g></svg>